# xmcd
#
# Track frame offsets:
#	150
#	14710
#	30764
#	53057
#	70226
#	81474
#	101832
#	113897
#	139800
#	163426
#	181220
#	207414
#
# Disc length: 2997 seconds
#
# Revision: 0
# Processed by: cddbd v1.5.2PL0 Copyright (c) Steve Scherf et al.
# Submitted via: dBpowerAMP V4.0
#
DISCID=ac0bb30c
DTITLE=Princess cruises - Tropical Escapes
DYEAR=2006
DGENRE=Club
TTITLE0=Jimmy Cliff - Wonderfull world, beautiful people
TTITLE1=Bebel Gilberto - So nice (summer samba)
TTITLE2=Andy Narell - Segura Ele
TTITLE3=Bob Marley - Corner Stone (patchworks remix)
TTITLE4=Mongo Santamaria - Watermelon Man
TTITLE5=Karrin Allyson - O Barquinho (my little boat)
TTITLE6=Desmond Dekker - You can get it if you really want
TTITLE7=Ohta-San - Little grass shack
TTITLE8=Cal Tjader and carmen McRae - Evil Ways
TTITLE9=Alfred St John's Trinidad and tobago Steelband - Jamaica Farewell
TTITLE10=Tito Puente - Oye como va
TTITLE11=Salomé de Bahia - Mas que nada
EXTD=
EXTT0=
EXTT1=
EXTT2=
EXTT3=
EXTT4=
EXTT5=
EXTT6=
EXTT7=
EXTT8=
EXTT9=
EXTT10=
EXTT11=
PLAYORDER=
